<?xml version="1.0" encoding="utf-8"?>
<!-- Generator: Adobe Illustrator 17.1.0, SVG Export Plug-In . SVG Version: 6.00 Build 0)  -->
<!DOCTYPE svg PUBLIC "-//W3C//DTD SVG 1.1//EN" "http://www.w3.org/Graphics/SVG/1.1/DTD/svg11.dtd">
<svg version="1.1" id="Layer_1" xmlns="http://www.w3.org/2000/svg" xmlns:xlink="http://www.w3.org/1999/xlink" x="0px" y="0px"
	 viewBox="0 0 204 45.5" enable-background="new 0 0 204 45.5" xml:space="preserve">
<g>
	<path fill="#FFFFFF" d="M1.2,44.4V10.6c0-3.8,3.1-6.9,6.9-6.9h7.3c0.7,0,1.3,0.6,1.3,1.3c0,0.7-0.6,1.3-1.3,1.3H8.1
		c-2.4,0-4.3,2-4.3,4.4c0,0,0,22,0,33.8C4.3,44.5,1.2,44.4,1.2,44.4z"/>
	<path fill="#FFFFFF" d="M50.7,44V10.6c0-2.4-1.9-4.4-4.3-4.4h-7.7c-0.7,0-1.3-0.6-1.3-1.3c0-0.7,0.6-1.3,1.3-1.3h7.7
		c3.8,0,6.9,3.1,6.9,6.9v33.4L50.7,44z"/>
	<path fill="#FFFFFF" d="M38.7,35.2c-0.3,0-0.5-0.1-0.7-0.2L27,27.1l-10.9,7.8c-0.4,0.3-0.9,0.3-1.3,0.1c-0.4-0.2-0.7-0.7-0.7-1.1
		V2.5c0-0.7,0.6-1.3,1.3-1.3h23.3c0.7,0,1.3,0.6,1.3,1.3v16.3c0,0,0,0,0,0.1v15c0,0.5-0.3,0.9-0.7,1.1
		C39.1,35.1,38.9,35.2,38.7,35.2z M27,24.2c0.3,0,0.5,0.1,0.7,0.2l9.6,6.9V18.8c0,0,0,0,0-0.1V3.8H16.7v27.6l9.6-6.9
		C26.5,24.3,26.8,24.2,27,24.2z"/>
	<path fill="#FFFFFF" d="M22.6,22.2c-0.4,0-0.7-0.1-1.1-0.3c-0.6-0.4-0.8-1.1-0.7-1.8l0.7-4l-2.9-2.8c-0.5-0.5-0.7-1.2-0.5-1.9
		c0.2-0.7,0.8-1.1,1.5-1.2l4-0.6l1.8-3.7c0.3-0.6,0.9-1,1.6-1l0,0c0.7,0,1.3,0.4,1.6,1l1.8,3.7l4,0.6c0.7,0.1,1.2,0.6,1.5,1.2
		c0.2,0.7,0,1.4-0.5,1.9L32.5,16l0.7,4c0.1,0.7-0.2,1.4-0.7,1.8c-0.6,0.4-1.3,0.5-1.9,0.1L27,20.1L23.5,22
		C23.2,22.1,22.9,22.2,22.6,22.2z M21.5,12.4l2.3,2.2c0.3,0.3,0.4,0.7,0.4,1.1L23.6,19l2.8-1.5c0.4-0.2,0.8-0.2,1.2,0l2.8,1.5
		l-0.5-3.2c-0.1-0.4,0.1-0.8,0.4-1.1l2.3-2.2L29.4,12c-0.4-0.1-0.8-0.3-1-0.7L27,8.4l-1.4,2.9c-0.2,0.4-0.5,0.6-1,0.7L21.5,12.4z"/>
	<path fill="#FFFFFF" d="M40.8,6.3c-0.4,0-0.7-0.1-1-0.4l-2.2-2.4c-0.5-0.5-0.4-1.3,0.1-1.8s1.3-0.4,1.8,0.1l2.2,2.4
		c0.5,0.5,0.4,1.3-0.1,1.8C41.4,6.1,41.1,6.3,40.8,6.3z"/>
	<path fill="#FFFFFF" d="M13.2,6.3c-0.3,0-0.6-0.1-0.9-0.3c-0.5-0.5-0.6-1.3-0.1-1.8l2.2-2.4c0.5-0.5,1.3-0.6,1.8-0.1
		c0.5,0.5,0.6,1.3,0.1,1.8l-2.2,2.4C13.9,6.1,13.6,6.3,13.2,6.3z"/>
	<path fill="#FFFFFF" d="M68,26.7v-8.1h9.3v-2H68v-5.7h9.5v-2H65.8v17.8H68z"/>
	<path fill="#FFFFFF" d="M88.6,27c5.3,0,8.9-4,8.9-9.2s-3.6-9.2-8.9-9.2s-8.8,4-8.8,9.2S83.4,27,88.6,27z M88.6,25
		c-4,0-6.5-3.1-6.5-7.2c0-4.2,2.5-7.2,6.5-7.2c4,0,6.6,3.1,6.6,7.2C95.2,21.9,92.6,25,88.6,25z"/>
	<path fill="#FFFFFF" d="M113.9,26.7l-4.8-7.3c2.4-0.2,4.6-2,4.6-5.2c0-3.3-2.3-5.4-5.6-5.4h-7.2v17.8h2.2v-7.1h3.6l4.5,7.1H113.9z
		 M107.8,17.7h-4.7v-6.8h4.7c2.1,0,3.6,1.4,3.6,3.4C111.4,16.3,109.9,17.7,107.8,17.7z"/>
	<path fill="#FFFFFF" d="M134.6,26.7V8.9h-3.2l-5.5,13.7l-5.6-13.7h-3.2v17.8h2.2v-15l6.1,15h0.9l6-15v15H134.6z"/>
	<path fill="#FFFFFF" d="M146.9,26.7L154,8.9h-2.5l-6,15.4l-6-15.4H137l7.2,17.8H146.9z"/>
	<path fill="#FFFFFF" d="M168,26.7v-2h-9.5v-6.1h9.3v-2h-9.3v-5.7h9.5v-2h-11.7v17.8H168z"/>
	<path fill="#FFFFFF" d="M186.3,26.7V8.9h-2.2v13.9L173.8,8.9h-2.3v17.8h2.2V12.5l10.4,14.2H186.3z"/>
	<path fill="#FFFFFF" d="M197.1,26.7V10.9h5.7v-2h-13.5v2h5.6v15.8H197.1z"/>
</g>
</svg>
